<svg width="53" height="53" viewBox="0 0 53 53" fill="none" xmlns="http://www.w3.org/2000/svg">
<g id="Facebook 1">
<path id="Vector" d="M31.3584 6.349C28.6497 6.349 26.0518 7.42508 24.1363 9.34047C22.221 11.2559 21.1449 13.8537 21.1449 16.5625V22.249H15.6792C15.4048 22.249 15.1824 22.4714 15.1824 22.7459V30.2542C15.1824 30.5287 15.4048 30.7511 15.6792 30.7511H21.1449V46.1542C21.1449 46.4287 21.3673 46.6511 21.6417 46.6511H29.1501C29.4246 46.6511 29.647 46.4287 29.647 46.1542V30.7511H35.1609C35.3891 30.7511 35.5878 30.5958 35.643 30.3748L37.5201 22.8664C37.5985 22.5529 37.3613 22.249 37.038 22.249H29.647V16.5625C29.647 16.1086 29.8274 15.6733 30.1482 15.3524C30.4691 15.0314 30.9046 14.8511 31.3584 14.8511H37.1001C37.3746 14.8511 37.597 14.6286 37.597 14.3542V6.84587C37.597 6.57147 37.3746 6.349 37.1001 6.349H31.3584Z" fill="white"/>
</g>
</svg>
