<svg width="81" height="80" viewBox="0 0 81 80" fill="none" xmlns="http://www.w3.org/2000/svg">
<g id="medal-award" clip-path="url(#clip0_15_179)">
<path id="Vector" d="M45.0624 57.5C44.0447 57.4056 43.068 57.0528 42.2249 56.475C41.7088 56.1069 41.1211 55.8514 40.4999 55.725C39.8807 55.8438 39.2931 56.0908 38.7749 56.45C37.8358 57.1649 36.6796 57.5356 35.4999 57.5C34.3304 57.1546 33.318 56.4119 32.6374 55.4C32.2854 54.9019 31.8396 54.4773 31.3249 54.15C30.7078 54.0579 30.0785 54.0919 29.4749 54.25C28.3167 54.5861 27.077 54.502 25.9749 54.0125C24.9996 53.2987 24.3087 52.2623 24.0249 51.0875C23.8623 50.492 23.5817 49.9351 23.1999 49.45C22.6524 49.1593 22.054 48.9768 21.4374 48.9125C20.2108 48.8534 19.0472 48.3516 18.1624 47.5C17.4947 46.4993 17.1984 45.2964 17.3249 44.1C17.3705 43.4787 17.2941 42.8545 17.0999 42.2625C16.6921 41.8089 16.1996 41.4394 15.6499 41.175C14.5563 40.6811 13.6714 39.8182 13.1499 38.7375C12.8688 37.5695 13.0059 36.3399 13.5374 35.2625C13.7932 34.6915 13.9334 34.0755 13.9499 33.45C13.7256 32.8913 13.3944 32.3818 12.9749 31.95C12.0651 31.1126 11.4844 29.9777 11.3374 28.75C11.4729 27.5322 12.0301 26.4002 12.9124 25.55C13.3373 25.1225 13.6692 24.6118 13.8874 24.05C13.8709 23.4245 13.7307 22.8085 13.4749 22.2375C12.9404 21.1565 12.8033 19.922 13.0874 18.75C13.6049 17.6515 14.4889 16.7675 15.5874 16.25C16.1371 15.9856 16.6296 15.6161 17.0374 15.1625C17.2379 14.5763 17.3145 13.9549 17.2624 13.3375C17.17 12.1546 17.4878 10.976 18.1624 10C19.0344 9.15942 20.1783 8.65841 21.3874 8.5875C22.0009 8.52773 22.5961 8.34492 23.1374 8.05C23.5169 7.56805 23.7973 7.01578 23.9624 6.425C24.2455 5.24646 24.9362 4.20598 25.9124 3.4875C27.0176 3.00843 28.255 2.92888 29.4124 3.2625C30.0167 3.41749 30.6462 3.44727 31.2624 3.35C31.7783 3.02424 32.2244 2.59937 32.5749 2.1C33.263 1.06845 34.3025 0.322127 35.4999 1.43051e-06C36.692 -0.0738396 37.8725 0.271019 38.8374 0.975001C39.3376 1.32519 39.9029 1.5717 40.4999 1.7C41.1197 1.57597 41.707 1.32485 42.2249 0.962501C43.1866 0.253132 44.3706 -0.0883202 45.5624 1.43051e-06C46.7368 0.335598 47.7522 1.08054 48.4249 2.1C48.7571 2.59336 49.1815 3.01782 49.6749 3.35C50.2911 3.44727 50.9207 3.41749 51.5249 3.2625C52.6824 2.92993 53.9195 3.00945 55.0249 3.4875C55.9987 4.20823 56.6888 5.24777 56.9749 6.425C57.14 7.01578 57.4204 7.56805 57.7999 8.05C58.345 8.34653 58.9446 8.52938 59.5624 8.5875C60.7865 8.65752 61.9464 9.1578 62.8374 10C63.507 11.0046 63.8033 12.2121 63.6749 13.4125C63.6228 14.0299 63.6994 14.6513 63.8999 15.2375C64.3042 15.6949 64.7976 16.0649 65.3499 16.325C66.4484 16.8425 67.3324 17.7265 67.8499 18.825C68.1321 19.9929 67.9949 21.2229 67.4624 22.3C67.2035 22.8705 67.0591 23.4863 67.0374 24.1125C67.2657 24.6721 67.6011 25.1816 68.0249 25.6125C68.9174 26.4373 69.4962 27.5462 69.6624 28.75C69.5293 29.9649 68.9715 31.0937 68.0874 31.9375C67.6691 32.3728 67.3344 32.8812 67.0999 33.4375C67.1216 34.0637 67.266 34.6795 67.5249 35.25C68.0562 36.3364 68.1932 37.5737 67.9124 38.75C67.3909 39.8307 66.506 40.6936 65.4124 41.1875C64.8628 41.4519 64.3702 41.8214 63.9624 42.275C63.7623 42.8656 63.6857 43.4911 63.7374 44.1125C63.8427 45.3122 63.5242 46.5108 62.8374 47.5C61.9635 48.3397 60.8216 48.8442 59.6124 48.925C58.9991 48.9774 58.4033 49.1562 57.8624 49.45C57.4806 49.9351 57.2 50.492 57.0374 51.0875C56.7536 52.2623 56.0627 53.2987 55.0874 54.0125C53.985 54.5009 52.7457 54.585 51.5874 54.25C50.9838 54.0919 50.3545 54.0579 49.7374 54.15C49.2452 54.4836 48.821 54.9078 48.4874 55.4C47.7912 56.4237 46.7549 57.1677 45.5624 57.5C45.396 57.5124 45.2288 57.5124 45.0624 57.5ZM40.4999 53.3125C41.5443 53.409 42.5467 53.7704 43.4124 54.3625C43.9271 54.7318 44.523 54.9719 45.1499 55.0625C45.5499 55.0625 46.1124 54.35 46.5999 53.8125C47.1966 52.9786 47.9971 52.3116 48.9249 51.875C49.9288 51.6124 50.9835 51.6124 51.9874 51.875C52.6063 52.0359 53.256 52.0359 53.8749 51.875C54.2249 51.675 54.5249 50.875 54.7874 50.175C55.0628 49.184 55.5879 48.2802 56.3124 47.55C57.1641 46.9646 58.1476 46.5996 59.1749 46.4875C59.8227 46.4471 60.4502 46.2451 60.9999 45.9C61.2411 45.302 61.3313 44.6537 61.2624 44.0125C61.1883 42.978 61.3775 41.9416 61.8124 41C62.4058 40.16 63.2069 39.4881 64.1374 39.05C64.7749 38.6625 65.5124 38.2375 65.6499 37.8C65.6694 37.1613 65.5366 36.5272 65.2624 35.95C64.8252 35.0051 64.6442 33.9619 64.7374 32.925C65.0018 31.9386 65.5188 31.0382 66.2374 30.3125C66.7124 29.725 67.2624 29.0625 67.2624 28.65C67.2624 28.2375 66.7124 27.5625 66.2374 26.9875C65.5188 26.2618 65.0018 25.3614 64.7374 24.375C64.6437 23.334 64.8247 22.2867 65.2624 21.3375C65.5366 20.7603 65.6694 20.1262 65.6499 19.4875C65.5124 19.1125 64.7749 18.675 64.1374 18.2375C63.2088 17.7907 62.4088 17.1154 61.8124 16.275C61.3764 15.3385 61.1911 14.3047 61.2749 13.275C61.3368 12.6329 61.2424 11.9853 60.9999 11.3875C60.4624 11.093 59.8626 10.9302 59.2499 10.9125C58.2151 10.8161 57.2237 10.4497 56.3749 9.85C55.6481 9.12158 55.1227 8.21714 54.8499 7.225C54.6872 6.59567 54.3789 6.01336 53.9499 5.525C53.3251 5.37807 52.6747 5.37807 52.0499 5.525C51.046 5.78765 49.9913 5.78765 48.9874 5.525C48.0546 5.09631 47.2523 4.42772 46.6624 3.5875C46.1749 3.025 45.6249 2.3375 45.2124 2.3375C44.5853 2.43514 43.99 2.67924 43.4749 3.05C42.5914 3.65273 41.566 4.01464 40.4999 4.1C39.4538 4.01139 38.4494 3.64929 37.5874 3.05C37.072 2.68201 36.4764 2.44206 35.8499 2.35C35.4374 2.425 34.8874 3.075 34.3999 3.6C33.81 4.44022 33.0077 5.10881 32.0749 5.5375C31.071 5.80015 30.0163 5.80015 29.0124 5.5375C28.3876 5.39057 27.7372 5.39057 27.1124 5.5375C26.6834 6.02586 26.3751 6.60817 26.2124 7.2375C25.9396 8.22964 25.4142 9.13408 24.6874 9.8625C23.8395 10.4551 22.8541 10.8208 21.8249 10.925C21.1782 10.9715 20.5522 11.173 19.9999 11.5125C19.7587 12.115 19.6644 12.7663 19.7249 13.4125C19.8087 14.4422 19.6234 15.476 19.1874 16.4125C18.5882 17.2503 17.789 17.925 16.8624 18.375C16.2249 18.75 15.4874 19.175 15.3499 19.625C15.3244 20.2642 15.4575 20.8998 15.7374 21.475C16.1735 22.4202 16.3545 23.4631 16.2624 24.5C16.0011 25.4913 15.4838 26.3966 14.7624 27.125C14.2874 27.7 13.7374 28.375 13.7374 28.7875C13.7374 29.2 14.2874 29.8625 14.7624 30.45C15.481 31.1757 15.998 32.0761 16.2624 33.0625C16.3545 34.0994 16.1735 35.1423 15.7374 36.0875C15.4575 36.6627 15.3244 37.2983 15.3499 37.9375C15.4874 38.325 16.2124 38.75 16.8624 39.125C17.8032 39.5451 18.624 40.194 19.2499 41.0125C19.687 41.9532 19.8722 42.9912 19.7874 44.025C19.7214 44.6672 19.8159 45.3158 20.0624 45.9125C20.6085 46.2556 21.2314 46.4576 21.8749 46.5C22.9037 46.6058 23.8887 46.9714 24.7374 47.5625C25.4696 48.2888 25.9996 49.1936 26.2749 50.1875C26.5374 50.8875 26.8249 51.6875 27.1749 51.8875C27.7982 52.0473 28.4517 52.0473 29.0749 51.8875C30.0788 51.6249 31.1335 51.6249 32.1374 51.8875C33.0339 52.3118 33.8113 52.9517 34.3999 53.75C34.8874 54.325 35.4374 55 35.8499 55C36.2624 55 36.9749 54.6375 37.5874 54.3C38.4585 53.7285 39.4609 53.3886 40.4999 53.3125Z" fill="black"/>
<path id="Vector_2" d="M40.4999 49.45C36.3968 49.45 32.386 48.2328 28.9749 45.9525C25.5638 43.6722 22.9059 40.4312 21.3374 36.6397C19.7689 32.8482 19.3605 28.6767 20.1637 24.653C20.9669 20.6293 22.9457 16.9343 25.8496 14.0356C28.7536 11.1369 32.4521 9.16482 36.4773 8.3689C40.5024 7.57298 44.6732 7.98901 48.4618 9.56433C52.2505 11.1397 55.4866 13.8035 57.7608 17.2187C60.0349 20.6339 61.2448 24.6469 61.2374 28.75C61.2209 34.2414 59.0296 39.5026 55.143 43.3821C51.2565 47.2616 45.9913 49.4434 40.4999 49.45ZM40.4999 10.375C36.8742 10.3725 33.3291 11.445 30.3127 13.4568C27.2963 15.4686 24.9439 18.3294 23.553 21.6777C22.1621 25.0261 21.795 28.7116 22.4981 32.2685C23.2012 35.8255 24.9429 39.0941 27.5032 41.6614C30.0635 44.2287 33.3274 45.9793 36.8824 46.6921C40.4374 47.4049 44.1239 47.0479 47.476 45.6661C50.8282 44.2843 53.6954 41.9397 55.7154 38.9288C57.7354 35.9179 58.8175 32.3757 58.8249 28.75C58.8283 23.8843 56.9002 19.2162 53.4644 15.7709C50.0285 12.3257 45.3656 10.3849 40.4999 10.375Z" fill="black"/>
<path id="Vector_3" d="M48.0001 40.25C47.7494 40.2469 47.5056 40.1685 47.3001 40.025L40.4876 35.025L33.6751 40.025C33.4714 40.1365 33.2406 40.1891 33.0087 40.1769C32.7768 40.1646 32.5529 40.088 32.3621 39.9556C32.1713 39.8232 32.0212 39.6403 31.9285 39.4273C31.8359 39.2144 31.8044 38.9798 31.8376 38.75L34.4376 30.7375L27.6376 25.7375C27.4572 25.5763 27.3275 25.3663 27.2641 25.1329C27.2008 24.8995 27.2065 24.6527 27.2806 24.4225C27.3547 24.1922 27.494 23.9884 27.6816 23.8358C27.8692 23.6832 28.0971 23.5882 28.3376 23.5625H36.7501L39.3501 15.5625C39.4359 15.3249 39.5918 15.1188 39.7971 14.9716C40.0023 14.8243 40.2475 14.7427 40.5001 14.7375C40.7532 14.7341 41.0008 14.8126 41.2057 14.9612C41.4107 15.1099 41.5622 15.3208 41.6376 15.5625L44.2501 23.55H52.6751C52.927 23.5586 53.1705 23.6432 53.3735 23.7927C53.5765 23.9421 53.7295 24.1495 53.8126 24.3875C53.8823 24.6286 53.8779 24.8851 53.7999 25.1237C53.7219 25.3622 53.5738 25.5718 53.3751 25.725L46.5751 30.725L49.1626 38.75C49.214 38.9784 49.2003 39.2167 49.123 39.4377C49.0456 39.6587 48.9077 39.8535 48.7251 40C48.5156 40.1572 48.262 40.2447 48.0001 40.25ZM40.5001 32.3875C40.7538 32.3836 41.0011 32.4675 41.2001 32.625L45.7251 35.9125L44.0001 30.5875C43.9303 30.3464 43.9347 30.0899 44.0127 29.8513C44.0907 29.6128 44.2388 29.4032 44.4376 29.25L48.9626 25.9625H43.3751C43.121 25.9564 42.8748 25.8729 42.6693 25.7233C42.4638 25.5737 42.3089 25.365 42.2251 25.125L40.5001 19.8125L38.7751 25.125C38.6913 25.365 38.5363 25.5737 38.3308 25.7233C38.1254 25.8729 37.8792 25.9564 37.6251 25.9625H32.0376L36.5626 29.25C36.7613 29.4032 36.9094 29.6128 36.9874 29.8513C37.0654 30.0899 37.0698 30.3464 37.0001 30.5875L35.2751 35.9125L39.7876 32.625C39.9922 32.4692 40.2428 32.3857 40.5001 32.3875ZM50.5001 80C50.2239 79.9991 49.9557 79.9068 49.7376 79.7375L40.5001 72.1125L31.2626 79.675C31.082 79.8145 30.8666 79.9019 30.6399 79.9277C30.4132 79.9536 30.1837 79.9168 29.9764 79.8215C29.769 79.7262 29.5917 79.576 29.4637 79.3871C29.3357 79.1982 29.2618 78.9779 29.2501 78.75V53.675C29.322 53.4102 29.4791 53.1764 29.6971 53.0098C29.9151 52.8431 30.1819 52.7528 30.4563 52.7528C30.7307 52.7528 30.9975 52.8431 31.2155 53.0098C31.4335 53.1764 31.5906 53.4102 31.6626 53.675V76.25L39.6876 69.675C39.9061 69.5067 40.1742 69.4155 40.4501 69.4155C40.7259 69.4155 40.994 69.5067 41.2126 69.675L49.2501 76.25V53.75C49.3258 53.4904 49.4837 53.2623 49.7001 53.1C49.9164 52.9377 50.1796 52.85 50.4501 52.85C50.7205 52.85 50.9837 52.9377 51.2001 53.1C51.4164 53.2623 51.5743 53.4904 51.6501 53.75V78.75C51.6448 78.9766 51.5781 79.1974 51.457 79.389C51.3359 79.5806 51.165 79.7356 50.9626 79.8375C50.8206 79.9217 50.6634 79.9769 50.5001 80Z" fill="#14753B"/>
</g>
<defs>
<clipPath id="clip0_15_179">
<rect width="80" height="80" fill="white" transform="translate(0.5)"/>
</clipPath>
</defs>
</svg>
