<svg width="81" height="80" viewBox="0 0 81 80" fill="none" xmlns="http://www.w3.org/2000/svg">
<g id="naturally 1" clip-path="url(#clip0_15_185)">
<path id="Vector" d="M60.6498 10.9605C60.7331 11.1019 60.8435 11.2255 60.9747 11.3242C61.1059 11.4229 61.2552 11.4948 61.4142 11.5357C61.5731 11.5766 61.7386 11.5858 61.9011 11.5628C62.0636 11.5397 62.22 11.4848 62.3613 11.4012L65.3786 9.61799C65.6641 9.44936 65.8709 9.17424 65.9535 8.85314C66.0361 8.53204 65.9878 8.19127 65.8192 7.9058C65.6505 7.62033 65.3754 7.41353 65.0543 7.33091C64.7332 7.24829 64.3925 7.29661 64.107 7.46524L61.0897 9.24842C60.9484 9.33194 60.8249 9.44247 60.7263 9.57372C60.6277 9.70496 60.5559 9.85434 60.5151 10.0133C60.4742 10.1723 60.4651 10.3378 60.4882 10.5003C60.5113 10.6628 60.5662 10.8192 60.6498 10.9605ZM56.0595 0.410347C55.7371 0.334136 55.3977 0.388794 55.1155 0.562348C54.8334 0.735902 54.6315 1.0142 54.5542 1.33629L53.8482 4.29928C53.81 4.45895 53.8036 4.62459 53.8294 4.78674C53.8552 4.94888 53.9128 5.10435 53.9987 5.24426C54.0846 5.38416 54.1973 5.50576 54.3302 5.6021C54.4632 5.69844 54.6138 5.76764 54.7735 5.80574C54.9332 5.84384 55.0989 5.85008 55.261 5.82413C55.4231 5.79817 55.5785 5.74052 55.7184 5.65447C55.8582 5.56842 55.9797 5.45565 56.0759 5.32262C56.1721 5.18958 56.2412 5.03889 56.2792 4.87915L56.9851 1.91612C57.062 1.5937 57.0077 1.25394 56.8341 0.971565C56.6605 0.689189 56.3819 0.487318 56.0595 0.410347ZM66.5178 21.1405C66.8199 21.1402 67.1117 21.0305 67.3392 20.8317C67.5667 20.6328 67.7146 20.3584 67.7553 20.059C67.7961 19.7596 67.7271 19.4556 67.5611 19.2032C67.395 18.9508 67.1432 18.767 66.8522 18.6859L63.9228 17.8701C63.6039 17.7828 63.2634 17.8255 62.9758 17.9886C62.6883 18.1518 62.4771 18.4223 62.3885 18.7408C62.2999 19.0593 62.3411 19.4 62.503 19.6882C62.665 19.9764 62.9346 20.1887 63.2528 20.2787L66.1822 21.0944C66.2914 21.1249 66.4044 21.1404 66.5178 21.1405ZM61.6706 3.21773C61.4031 3.02208 61.0689 2.94068 60.7414 2.99145C60.4139 3.04221 60.12 3.22098 59.9243 3.48843L58.1499 5.914C57.9541 6.1815 57.8726 6.51582 57.9233 6.84342C57.974 7.17102 58.1528 7.46506 58.4203 7.66085C58.6878 7.85664 59.0221 7.93815 59.3497 7.88745C59.6773 7.83675 59.9713 7.65798 60.1671 7.39048L61.9415 4.96491C62.1372 4.69728 62.2186 4.36288 62.1678 4.03524C62.117 3.7076 61.9382 3.41354 61.6706 3.21773ZM67.9901 13.9849C67.9701 13.8219 67.9181 13.6644 67.837 13.5216C67.7559 13.3787 67.6475 13.2533 67.5178 13.1526C67.3881 13.0518 67.2398 12.9776 67.0814 12.9343C66.923 12.891 66.7576 12.8794 66.5947 12.9002L63.617 13.2738C63.4534 13.2933 63.2952 13.345 63.1516 13.4258C63.008 13.5067 62.8818 13.6152 62.7803 13.745C62.6787 13.8748 62.6039 14.0234 62.56 14.1823C62.5161 14.3411 62.5041 14.5071 62.5246 14.6706C62.5451 14.8342 62.5978 14.992 62.6795 15.1351C62.7613 15.2782 62.8705 15.4037 63.001 15.5045C63.1314 15.6052 63.2805 15.6791 63.4397 15.722C63.5988 15.7649 63.7648 15.7759 63.9282 15.7543L66.9059 15.3808C67.0687 15.3603 67.2259 15.308 67.3686 15.2268C67.5112 15.1455 67.6364 15.037 67.7371 14.9074C67.8378 14.7778 67.912 14.6296 67.9554 14.4713C67.9988 14.313 68.0106 14.1477 67.9901 13.9849ZM64.1839 26.2498C64.4453 26.25 64.7001 26.1683 64.9126 26.0161C65.1251 25.8639 65.2845 25.649 65.3685 25.4015C65.4525 25.1539 65.4568 24.8863 65.3808 24.6363C65.3048 24.3862 65.1523 24.1663 64.9448 24.0073L62.498 22.1336C62.2347 21.9321 61.9021 21.8435 61.5735 21.8872C61.2449 21.9309 60.947 22.1034 60.7456 22.3667C60.5441 22.63 60.4555 22.9625 60.4992 23.2911C60.5429 23.6198 60.7154 23.9176 60.9787 24.1191L63.4255 25.9926C63.643 26.1595 63.9097 26.2499 64.1839 26.2498ZM49.574 0.0178906C49.4123 0.0462467 49.2578 0.106172 49.1192 0.194246C48.9807 0.28232 48.8609 0.396818 48.7666 0.531201C48.6723 0.665584 48.6054 0.817222 48.5698 0.977456C48.5341 1.13769 48.5303 1.30338 48.5587 1.46507L49.0913 4.50653C49.1419 4.796 49.2929 5.05839 49.5178 5.24759C49.7426 5.43679 50.027 5.5407 50.3208 5.54107C50.3934 5.54093 50.4659 5.53461 50.5374 5.52215C50.864 5.46489 51.1544 5.28025 51.3448 5.00886C51.5352 4.73747 51.61 4.40155 51.5528 4.075L51.0201 1.03358C50.9622 0.707529 50.7776 0.417655 50.5066 0.227328C50.2356 0.037 49.9003 -0.0382995 49.574 0.0178906ZM47.37 8.39515C47.2287 8.47867 47.1052 8.5892 47.0066 8.72045C46.908 8.85169 46.8363 9.00107 46.7954 9.16006C46.7546 9.31905 46.7454 9.48453 46.7686 9.64705C46.7917 9.80956 46.8466 9.96593 46.9301 10.1072C47.2804 10.7014 54.4035 22.8101 54.755 23.4043C54.8383 23.5457 54.9487 23.6693 55.0799 23.768C55.211 23.8667 55.3604 23.9386 55.5193 23.9795C55.6783 24.0205 55.8438 24.0296 56.0063 24.0066C56.1688 23.9835 56.3252 23.9286 56.4664 23.845C58.5094 22.6318 59.9888 20.659 60.5813 18.358C61.1738 16.057 60.8312 13.6151 59.6283 11.566C59.0327 10.5518 58.2428 9.66513 57.3039 8.95668C56.3651 8.24823 55.2957 7.73194 54.157 7.4374C53.0183 7.14286 51.8327 7.07584 50.6681 7.24019C49.5035 7.40454 48.3828 7.79701 47.37 8.39515ZM40.8899 54.4238C41.536 53.7276 42.2168 53.0645 42.9297 52.4369C42.8251 52.0937 42.7253 51.7497 42.6083 51.4084C37.1546 35.5063 20.1296 27.3125 18.2058 26.4308C18.0505 26.3593 17.8822 26.3206 17.7113 26.3169C17.5404 26.3133 17.3706 26.3449 17.2124 26.4098L17.1489 26.4357C16.9915 26.5002 16.8489 26.5961 16.7299 26.7176C16.6108 26.8391 16.5178 26.9836 16.4564 27.1422C15.6864 29.1341 9.14109 47.0444 16.3575 62.2937C19.9093 69.798 26.216 75.3622 35.11 78.875C34.8892 77.8857 34.711 76.911 34.5756 75.9508C27.053 72.6611 21.6917 67.7223 18.6164 61.2237C12.6837 48.6869 16.8835 33.6847 18.3473 29.2879C22.4367 31.4071 35.7652 39.1606 40.2439 52.2203C40.4937 52.9486 40.7022 53.6844 40.8899 54.4238Z" fill="#37CD12"/>
<path id="Vector_2" d="M38.5376 79.95C38.9349 80.0111 39.3404 79.9941 39.7313 79.9C47.1063 79.225 52.8688 76.425 56.8563 71.5563C64.4126 62.325 62.9626 48.9125 62.7751 47.4125C62.7157 47.0639 62.5258 46.751 62.2438 46.5375C62.1058 46.4344 61.9478 46.3612 61.78 46.3225C61.6121 46.2837 61.4381 46.2803 61.2688 46.3125C59.8001 46.5875 46.7313 49.2813 40.2751 59.2625C36.7563 64.7 35.8751 71.2688 37.6501 78.7813C37.6702 79.0407 37.7646 79.2889 37.922 79.4961C38.0794 79.7034 38.2931 79.8609 38.5376 79.95ZM42.3751 60.6188C47.3188 52.9813 56.9063 49.95 60.4126 49.0688C60.6501 52.7062 60.7188 62.8938 54.9188 69.975C51.8313 73.7438 47.4938 76.1313 42.0001 77.0813L48.3938 68.2313C48.5868 67.9627 48.6654 67.6285 48.6124 67.3021C48.5593 66.9756 48.3789 66.6836 48.1108 66.4899C47.8427 66.2963 47.5087 66.2169 47.1822 66.2692C46.8556 66.3214 46.5631 66.5011 46.3688 66.7688L39.6501 76.075C38.6626 70.1438 39.5688 64.95 42.3751 60.6188ZM29.9998 59.4848C29.6974 59.6207 29.4613 59.871 29.3434 60.1808C29.2254 60.4906 29.2353 60.8345 29.3707 61.1371L34.265 72.0585C34.2305 70.3115 34.3654 68.5653 34.6676 66.8444L31.6515 60.1141C31.5844 59.9643 31.4885 59.8292 31.3692 59.7165C31.2498 59.6037 31.1095 59.5157 30.9561 59.4572C30.8027 59.3988 30.6393 59.3711 30.4752 59.3759C30.3111 59.3806 30.1496 59.4176 29.9998 59.4848ZM44.9654 50.5969C44.9821 50.6456 44.9948 50.6948 45.0113 50.7435C48.574 48.1761 52.5311 46.2061 56.7271 44.9108C56.0379 24.268 40.8641 7.40792 40.1774 6.65625C40.0573 6.53319 39.9138 6.43539 39.7554 6.36863C39.5969 6.30187 39.4267 6.26749 39.2548 6.26752C39.0828 6.26755 38.9126 6.30198 38.7542 6.3688C38.5958 6.43561 38.4523 6.53345 38.3323 6.65656C32.9275 12.9038 28.6031 20.0092 25.5371 27.6799C26.231 28.1269 26.9564 28.6123 27.7092 29.1436L27.7081 29.1512C33.8282 33.4715 41.529 40.5797 44.9654 50.5969Z" fill="#14753B"/>
</g>
<defs>
<clipPath id="clip0_15_185">
<rect width="80" height="80" fill="white" transform="translate(0.5)"/>
</clipPath>
</defs>
</svg>
