<svg width="81" height="80" viewBox="0 0 81 80" fill="none" xmlns="http://www.w3.org/2000/svg">
<g id="no-touch 1">
<path id="Vector" d="M40.5 2.5C33.0832 2.5 25.833 4.69934 19.6661 8.81989C13.4993 12.9404 8.69282 18.7971 5.85453 25.6494C3.01625 32.5016 2.27362 40.0416 3.72057 47.3159C5.16751 54.5902 8.73904 61.272 13.9835 66.5165C19.228 71.761 25.9098 75.3325 33.1841 76.7794C40.4584 78.2264 47.9984 77.4838 54.8506 74.6455C61.7029 71.8072 67.5596 67.0007 71.6801 60.8339C75.8007 54.667 78 47.4168 78 40C78 30.0544 74.0491 20.5161 67.0165 13.4835C59.9839 6.45088 50.4456 2.5 40.5 2.5ZM8.17502 40C8.1759 33.828 9.94372 27.7853 13.2695 22.5861C16.5953 17.3868 21.3401 13.2484 26.943 10.6599C32.546 8.07138 38.7729 7.14104 44.8877 7.9788C51.0026 8.81656 56.7497 11.3874 61.45 15.3875L15.8875 60.95C10.8987 55.1109 8.16313 47.68 8.17502 40ZM40.5 72.325C32.82 72.3369 25.3891 69.6013 19.55 64.6125L65.1125 19.05C69.1126 23.7503 71.6834 29.4975 72.5212 35.6123C73.359 41.7272 72.4286 47.954 69.8401 53.557C67.2516 59.1599 63.1132 63.9047 57.9139 67.2305C52.7147 70.5563 46.672 72.3241 40.5 72.325Z" fill="#14753B"/>
</g>
</svg>
