<svg width="30" height="30" viewBox="0 0 30 30" fill="none" xmlns="http://www.w3.org/2000/svg">
<g id="vuesax/bold/star">
<g id="star">
<path id="Vector" d="M6.62495 18.075C7.06245 18.5125 7.31245 19.3875 7.17495 20L6.52495 22.8125C6.47495 23.0625 6.13384 25.7004 6.31245 26.1875C6.44995 26.5625 6.66245 26.85 6.94995 27.0625C7.71245 27.625 8.89995 27.4875 10.2874 26.675L13.9499 24.5C14.5249 24.1625 15.4749 24.1625 16.0499 24.5L19.7124 26.675C20.5374 27.1625 21.2874 27.4 21.9249 27.4C22.3624 27.4 22.7374 27.2875 23.0499 27.0625C23.8249 26.5 24.0499 25.325 23.6874 23.7625L22.8249 20C22.6749 19.3875 22.9249 18.525 23.3749 18.075L26.3999 15.0375C27.3499 14.0875 27.7249 13.075 27.4499 12.2C27.1624 11.325 26.2749 10.725 24.9499 10.5L23.6874 10.2875C22.8999 10.15 20.7749 9.8 20.4124 9.5875C20.0499 9.375 19.7124 9.0625 19.5499 8.7375L17.3999 4.425C16.7749 3.1875 15.9249 2.5 14.9999 2.5C14.0749 2.5 13.2249 3.1875 12.5999 4.425L10.4499 8.7375C10.1874 9.25 9.49995 9.75 8.93745 9.85L5.03745 10.5C3.71245 10.725 2.82495 11.325 2.53745 12.2C2.26245 13.075 2.63745 14.0875 3.58745 15.0375L6.62495 18.075Z" fill="#FFD12E"/>
</g>
</g>
</svg>
