<svg width="53" height="53" viewBox="0 0 53 53" fill="none" xmlns="http://www.w3.org/2000/svg">
<g id="Twitter 1">
<path id="Vector" d="M48.163 13.7519C48.2911 13.5735 48.1021 13.3432 47.8974 13.4225C46.4427 13.9864 44.9223 14.3668 43.3716 14.5543C45.0983 13.5227 46.4308 11.9524 47.1697 10.0933C47.2448 9.90391 47.0381 9.73479 46.8597 9.83331C45.2549 10.7196 43.524 11.3578 41.7262 11.7253C41.6509 11.7407 41.5734 11.7151 41.5206 11.6594C40.1713 10.2357 38.3951 9.2878 36.4591 8.96024C34.4822 8.62581 32.4503 8.95695 30.6821 9.90174C28.9137 10.8465 27.5089 12.3515 26.6881 14.1807C25.9077 15.9199 25.6972 17.8586 26.0821 19.7205C26.1119 19.865 25.9989 20.0014 25.8516 19.9922C22.3536 19.775 18.9356 18.8445 15.8086 17.257C12.6896 15.6734 9.92753 13.4705 7.69077 10.784C7.59151 10.6648 7.40336 10.6802 7.33101 10.8174C6.63503 12.1382 6.27062 13.6102 6.27161 15.1064C6.26878 16.5956 6.63424 18.0625 7.33547 19.3763C8.03671 20.6902 9.05194 21.8102 10.2908 22.6368C8.97697 22.601 7.68881 22.2762 6.51729 21.6874C6.3663 21.6115 6.1852 21.7195 6.19306 21.8883C6.28442 23.852 7.00533 25.8234 8.25317 27.3361C9.58108 28.9455 11.4242 30.0471 13.4708 30.4543C12.683 30.6941 11.865 30.8204 11.0416 30.8297C10.5935 30.8244 10.1462 30.7915 9.70232 30.7308C9.53776 30.7082 9.4034 30.8646 9.46099 31.0203C10.0714 32.671 11.1498 34.1115 12.5677 35.1629C14.0836 36.2869 15.9122 36.9106 17.7991 36.9468C14.6129 39.4539 10.6792 40.8222 6.62494 40.8334C6.20834 40.8348 5.79194 40.8213 5.37653 40.793C5.14242 40.7771 5.03477 41.0889 5.23654 41.2086C9.18674 43.553 13.7017 44.7919 18.307 44.7864C21.7072 44.8217 25.0802 44.1791 28.2293 42.8962C31.3784 41.6132 34.2402 39.7158 36.6477 37.3145C39.0552 34.9131 40.9601 32.0562 42.2511 28.9104C43.5419 25.7647 44.1931 22.3932 44.1666 18.993V17.9334C44.1666 17.8637 44.1995 17.7981 44.2552 17.7561C45.7531 16.6251 47.0703 15.2749 48.163 13.7519Z" fill="white"/>
</g>
</svg>
