<svg width="53" height="53" viewBox="0 0 53 53" fill="none" xmlns="http://www.w3.org/2000/svg">
<g id="Whatsapp 1">
<path id="Vector" d="M19.6232 15.8335C20.0272 15.8443 20.4751 15.8661 20.9013 16.8121C21.1839 17.4419 21.66 18.6013 22.0478 19.5457C22.3497 20.2806 22.5979 20.8854 22.6599 21.0091C22.8019 21.2918 22.8894 21.618 22.7037 21.9985C22.6818 22.0434 22.6613 22.0862 22.6412 22.1275C22.4923 22.4367 22.3863 22.6569 22.1357 22.9444C22.0328 23.0628 21.9255 23.1924 21.8185 23.3216C21.6305 23.5488 21.4437 23.7745 21.2836 23.934C20.9996 24.2164 20.7045 24.5211 21.0322 25.0865C21.3601 25.6518 22.5071 27.5112 24.2005 29.0116C26.0208 30.6323 27.6037 31.3153 28.404 31.6605C28.5593 31.7276 28.6852 31.7819 28.7775 31.8279C29.3457 32.1105 29.6842 32.067 30.0119 31.6865C30.3399 31.3058 31.4321 30.0336 31.8146 29.4683C32.186 28.9029 32.5683 28.9899 33.0928 29.1856C33.617 29.3812 36.4137 30.7513 36.9817 31.034C37.0938 31.0898 37.199 31.1402 37.2963 31.187C37.6914 31.3765 37.9602 31.5052 38.0741 31.6973C38.2161 31.9365 38.2161 33.0674 37.7464 34.3939C37.2659 35.7203 34.9498 36.9925 33.901 37.0903C33.8017 37.0998 33.7029 37.1117 33.6011 37.1239C32.6401 37.2403 31.4202 37.3878 27.0733 35.6768C21.7173 33.5707 18.1817 28.3449 17.4669 27.2884C17.4105 27.2049 17.3716 27.1475 17.3508 27.1197L17.3387 27.1036C17.0135 26.6683 15.0239 24.0062 15.0239 21.2593C15.0239 18.6313 16.3185 17.2631 16.909 16.6391C16.9464 16.5995 16.981 16.563 17.0123 16.5293C17.5365 15.964 18.1484 15.8226 18.5307 15.8226C18.9132 15.8226 19.2955 15.8226 19.6232 15.8335Z" fill="white"/>
<path id="Vector_2" fill-rule="evenodd" clip-rule="evenodd" d="M4.82328 47.1068C4.6426 47.7627 5.23993 48.368 5.89812 48.1962L16.0727 45.5387C19.2844 47.2782 22.9003 48.2024 26.5818 48.2024H26.5929C38.7078 48.2024 48.5832 38.3841 48.5832 26.3151C48.5832 20.4654 46.2998 14.9635 42.1488 10.8316C37.9976 6.69998 32.4809 4.41663 26.5926 4.41663C14.4779 4.41663 4.6023 14.235 4.6023 26.3043C4.60091 30.1437 5.61435 33.916 7.54088 37.2424L4.82328 47.1068ZM10.7344 38.1222C10.9703 37.266 10.8525 36.3509 10.4073 35.5822C8.77284 32.7601 7.91363 29.5596 7.9148 26.3043C7.9148 16.0801 16.2916 7.72913 26.5926 7.72913C31.6053 7.72913 36.2819 9.66579 39.8119 13.1794C43.338 16.6892 45.2707 21.346 45.2707 26.3151C45.2707 36.5388 36.8941 44.8899 26.5929 44.8899H26.5818C23.4537 44.8899 20.3798 44.1043 17.6503 42.6259C16.9116 42.2257 16.0484 42.1213 15.2355 42.3337L9.13523 43.927L10.7344 38.1222Z" fill="white"/>
</g>
</svg>
